{"title":"Roberto Rossellini's Paisà (1946) - Restored Edition 1080p x265","uid":15080651,"size":2767273136,"categoryP":"video","categoryS":"hd___movies","magnet":"?xt=urn:btih:3b422095888adf9542e2529dc057c249b7fb3d4b&amp;dn=Roberto+Rossellini%27s+Paisa%CC%80+%281946%29+-+Restored+Edition+1080p+x265&amp;tr=udp%3A%2F%2Ftracker.leechers-paradise.org%3A6969&amp;tr=udp%3A%2F%2Fzer0day.ch%3A1337&amp;tr=udp%3A%2F%2Fopen.demonii.com%3A1337&amp;tr=udp%3A%2F%2Ftracker.coppersurfer.tk%3A6969&amp;tr=udp%3A%2F%2Fexodus.desync.com%3A6969","seeders":1,"leechers":1,"uploader":"BRSHNKV","files":3,"time":1466859721,"description":"Six vignettes follow the Allied invasion from July 1943 to winter 1944, from Sicily north to Venice. Communication is fragile. A woman leads an Allied patrol through a mine field; she dies protecting a G.I., but the Yanks think she killed him. A street urchin steals shoes from a G.I. who tracks him to a shanty town. A G.I. meets a woman the day Rome is liberated; in six months they meet again: he's cynical, she's a prostitute. A US nurse braves the trip across the Arno into German fire in search of a partisan she loves. Three chaplains, including a Jew, call on a monastery north in the Apennines. Allied soldiers and partisans try to escape capture in the marshes of the Po.\r\n\r\n\r\nTechnical x264:\r\n\r\nFormat : MPEG-4\r\nFormat profile : Base Media / Version 2\r\nCodec ID : mp42\r\nFile size : 1.60 GiB\r\nDuration : 2h 5mn\r\nOverall bit rate mode : Variable\r\nOverall bit rate : 1 814 Kbps\r\nMovie name : Paisà 1080p x264 [BRSHNKV]\r\nEncoded date : UTC 2016-06-17 17:23:34\r\nTagged date : UTC 2016-06-17 17:23:34\r\nWriting application : HandBrake 0.10.2 2015061100\r\n\r\nVideo\r\nID : 1\r\nFormat : AVC\r\nFormat/Info : Advanced Video Codec\r\nFormat profile :   \r\nFormat settings, CABAC : Yes\r\nFormat settings, ReFrames : 4 frames\r\nCodec ID : avc1\r\nCodec ID/Info : Advanced Video Coding\r\nDuration : 2h 5mn\r\nBit rate : 1 700 Kbps\r\nWidth : 1 480 pixels\r\nHeight : 1 080 pixels\r\nDisplay aspect ratio : 1.370\r\nFrame rate mode : Constant\r\nFrame rate : 24.000 fps\r\nColor space : YUV\r\nChroma subsampling : 4:2:0\r\nBit depth : 8 bits\r\nScan type : Progressive\r\nBits/(Pixel*Frame) : 0.044\r\nStream size : 1.50 GiB (94%)\r\nWriting library : x264 core 142 r2479 dd79a61\r\nEncoded date : UTC 2016-06-17 17:23:34\r\nTagged date : UTC 2016-06-17 17:23:34\r\nColor range : Limited\r\nColor primaries : BT.709\r\nTransfer characteristics : BT.709\r\nMatrix coefficients : BT.709\r\n\r\nAudio\r\nID : 2\r\nFormat : AAC\r\nFormat/Info : Advanced Audio Codec\r\nFormat profile : LC\r\nCodec ID : 40\r\nDuration : 2h 5mn\r\nBit rate mode : Variable\r\nBit rate : 109 Kbps\r\nChannel(s) : 2 channels\r\nChannel positions : Front: L R\r\nSampling rate : 48.0 KHz\r\nCompression mode : Lossy\r\nStream size : 97.8 MiB (6%)\r\nTitle : Stereo / Stereo\r\nLanguage : Italian\r\nEncoded date : UTC 2016-06-17 17:23:34\r\nTagged date : UTC 2016-06-17 17:23:34\r\n\r\nText\r\nID : 3\r\nFormat : Timed Text\r\nMuxing mode : sbtl\r\nCodec ID : tx3g\r\nDuration : 2h 5mn\r\nBit rate mode : Variable\r\nBit rate : 37 bps\r\nStream size : 34.3 KiB (0%)\r\nLanguage : English\r\nEncoded date : UTC 2016-06-17 17:23:34\r\nTagged date : UTC 2016-06-17 17:23:34\r\n\r\nMenu\r\nID : 4\r\nCodec ID : text\r\nDuration : 2h 5mn\r\nLanguage : English\r\nEncoded date : UTC 2016-06-17 17:23:34\r\nTagged date : UTC 2016-06-17 17:23:34\r\nBit rate mode : CBR\r\n00:00:00.000 : 00:00:00.000\r\n00:02:27.708 : 00:02:27.625\r\n00:13:43.667 : 00:13:43.583\r\n00:25:41.167 : 00:25:41.083\r\n00:36:07.542 : 00:36:07.417\r\n00:41:10.542 : 00:41:10.458\r\n00:59:01.667 : 00:59:01.542\r\n01:11:10.917 : 01:11:10.750\r\n01:21:15.917 : 01:21:15.750\r\n01:29:36.417 : 01:29:36.333\r\n01:42:19.208 : 01:42:19.042\r\n01:54:00.542 : 01:54:00.292\r\n\r\n____________________________________________\r\n\r\n\r\nTechnical x265:\r\n\r\n\r\nFormat : MPEG-4\r\nFormat profile : Base Media / Version 2\r\nCodec ID : mp42\r\nFile size : 1 005 MiB\r\nDuration : 2h 5mn\r\nOverall bit rate mode : Variable\r\nOverall bit rate : 1 115 Kbps\r\nMovie name : Paisà 1080p x265 [BRSHNKV]\r\nEncoded date : UTC 2016-06-18 01:56:19\r\nTagged date : UTC 2016-06-18 01:56:19\r\nWriting application : HandBrake 20160211184813-ffd8cb1-master 2016021301\r\n\r\nVideo\r\nID : 1\r\nFormat : HEVC\r\nFormat/Info : High Efficiency Video Coding\r\nFormat profile : Main   @Main\r\nCodec ID : hev1\r\nCodec ID/Info : High Efficiency Video Coding\r\nDuration : 2h 5mn\r\nBit rate : 1 001 Kbps\r\nWidth : 1 480 pixels\r\nHeight : 1 080 pixels\r\nDisplay aspect ratio : 1.370\r\nFrame rate mode : Constant\r\nFrame rate : 24.000 fps\r\nColor space : YUV\r\nChroma subsampling : 4:2:0\r\nBit depth : 10 bits\r\nBits/(Pixel*Frame) : 0.026\r\nStream size : 902 MiB (90%)\r\nWriting library : x265 1.9:[Mac OS X][clang 7.0.2][64 bit] 10bit\r\nEncoded date : UTC 2016-06-18 01:56:19\r\nTagged date : UTC 2016-06-18 01:56:19\r\nColor range : Limited\r\nColor primaries : BT.709\r\nTransfer characteristics : BT.709\r\nMatrix coefficients : BT.709\r\n\r\nAudio\r\nID : 2\r\nFormat : AAC\r\nFormat/Info : Advanced Audio Codec\r\nFormat profile : LC\r\nCodec ID : 40\r\nDuration : 2h 5mn\r\nBit rate mode : Variable\r\nBit rate : 109 Kbps\r\nChannel(s) : 2 channels\r\nChannel positions : Front: L R\r\nSampling rate : 48.0 KHz\r\nCompression mode : Lossy\r\nStream size : 97.8 MiB (10%)\r\nTitle : Stereo / Stereo\r\nLanguage : Italian\r\nEncoded date : UTC 2016-06-18 01:56:19\r\nTagged date : UTC 2016-06-18 01:56:19\r\n\r\nText\r\nID : 3\r\nFormat : Timed Text\r\nMuxing mode : sbtl\r\nCodec ID : tx3g\r\nDuration : 2h 5mn\r\nBit rate mode : Variable\r\nBit rate : 37 bps\r\nStream size : 34.3 KiB (0%)\r\nLanguage : English\r\nEncoded date : UTC 2016-06-18 01:56:19\r\nTagged date : UTC 2016-06-18 01:56:19\r\n\r\nMenu\r\nID : 4\r\nCodec ID : text\r\nDuration : 2h 5mn\r\nLanguage : English\r\nEncoded date : UTC 2016-06-18 01:56:19\r\nTagged date : UTC 2016-06-18 01:56:19\r\nBit rate mode : CBR\r\n00:00:00.000 : 00:00:00.000\r\n00:02:27.708 : 00:02:27.625\r\n00:13:43.667 : 00:13:43.583\r\n00:25:50.292 : 00:25:41.083\r\n00:36:07.542 : 00:36:07.417\r\n00:41:10.542 : 00:41:10.458\r\n00:59:02.292 : 00:59:01.542\r\n01:11:10.917 : 01:11:10.750\r\n01:21:15.875 : 01:21:15.750\r\n01:29:45.708 : 01:29:36.333\r\n01:42:19.208 : 01:42:19.042\r\n01:54:00.500 : 01:54:00.292","torrent":{"xt":"urn:btih:3b422095888adf9542e2529dc057c249b7fb3d4b","amp;dn":"Roberto+Rossellini%27s+Paisa%CC%80+%281946%29+-+Restored+Edition+1080p+x265","amp;tr":["udp%3A%2F%2Ftracker.leechers-paradise.org%3A6969","udp%3A%2F%2Fzer0day.ch%3A1337","udp%3A%2F%2Fopen.demonii.com%3A1337","udp%3A%2F%2Ftracker.coppersurfer.tk%3A6969","udp%3A%2F%2Fexodus.desync.com%3A6969"],"infoHash":"3b422095888adf9542e2529dc057c249b7fb3d4b","infoHashBuffer":{"type":"Buffer","data":[59,66,32,149,136,138,223,149,66,226,82,157,192,87,194,73,183,251,61,75]},"announce":[],"urlList":[]}}